<?xml version="1.0" ?>
<svg xmlns="http://www.w3.org/2000/svg" xmlns:xlink="http://www.w3.org/1999/xlink" version="1.1" id="Layer_1" viewBox="0 0 24 24" enable-background="new 0 0 24 24" xml:space="preserve">
  <linearGradient id="SVGID_1_" gradientUnits="userSpaceOnUse" x1="12" y1="-0.3571" x2="12" y2="24.3934">
    <stop offset="0" style="stop-color:#FFDAB9"/>
    <stop offset="0.4218" style="stop-color:#FFC085"/>
    <stop offset="1" style="stop-color:#FFA07A"/>
  </linearGradient>

  <path fill="url(#SVGID_1_)" stroke="#8B4513" stroke-width="3" d="M20.62,16.24c-0.1-0.09-0.23-0.18-0.41-0.27c-0.3-0.14-0.73-0.28-1.27-0.4L19,10.95
  c0-0.25-0.13-0.48-0.35-0.61l-2.01-1.13C16.7,9,16.74,8.77,16.74,8.54c0-0.55-0.21-1.07-0.6-1.46C15.83,6.77,15.43,6.57,15,6.5
  c0.14-0.17,0.32-0.32,0.52-0.4c0.09-0.04,0.13-0.14,0.09-0.23c-0.04-0.09-0.14-0.13-0.23-0.09c-0.32,0.14-0.6,0.39-0.78,0.69
  c-0.52,0.02-1.01,0.23-1.39,0.6c-0.39,0.39-0.6,0.91-0.6,1.46c0,0.06,0,0.12,0.01,0.19L6.34,10.7c-0.09,0.03-0.14,0.12-0.11,0.21
  c0.02,0.07,0.09,0.12,0.16,0.12c0.02,0,0.03,0,0.05-0.01l6.24-1.95c0.09,0.35,0.27,0.67,0.54,0.93c0.39,0.39,0.91,0.6,1.46,0.6
  c0.55,0,1.07-0.21,1.46-0.6c0.14-0.14,0.26-0.3,0.36-0.48l1.98,1.11c0.11,0.06,0.18,0.18,0.18,0.31l-0.07,4.77l-0.01,0.37
  c0,0.19-0.16,0.34-0.34,0.34L5.69,16.44c0,0,0,0,0,0c-0.09,0-0.18-0.04-0.24-0.1c-0.07-0.07-0.1-0.15-0.1-0.24l0-0.37l0-3.63
  c0-0.19,0.15-0.34,0.33-0.34l12.44-0.36c0.09,0,0.17-0.08,0.17-0.18c0-0.09-0.08-0.17-0.18-0.17L5.67,11.42
  c-0.18,0.01-0.35,0.08-0.47,0.21C5.07,11.76,5,11.93,5,12.11l0,3.49c-0.52,0.12-0.93,0.25-1.23,0.39c-0.17,0.08-0.31,0.17-0.4,0.26
  c-0.12,0.11-0.17,0.24-0.17,0.37c0,0.28,0.26,0.51,0.79,0.72c0.45,0.18,1.08,0.33,1.88,0.47c1.64,0.27,3.81,0.42,6.13,0.42
  c2.31,0,4.49-0.15,6.13-0.42c0.8-0.13,1.44-0.29,1.88-0.47c0.53-0.21,0.79-0.44,0.79-0.72C20.8,16.48,20.74,16.36,20.62,16.24z"/>
</svg>
